<svg width="139" height="178" viewBox="0 0 139 178" fill="none" xmlns="http://www.w3.org/2000/svg">
<rect width="130" height="130" transform="translate(4)" fill="white"/>
<path d="M122.42 75.84C122.43 83.2392 120.894 90.5589 117.91 97.33H20.0901C16.8945 90.0546 15.3623 82.1579 15.605 74.2154C15.8478 66.2728 17.8594 58.4844 21.4933 51.4177C25.1272 44.3511 30.2919 38.1841 36.6109 33.3662C42.93 28.5483 50.2444 25.2008 58.021 23.5676C65.7976 21.9345 73.8407 22.0568 81.564 23.9257C89.2874 25.7946 96.4966 29.363 102.666 34.3709C108.836 39.3787 113.811 45.6999 117.228 52.8739C120.645 60.0478 122.419 67.8937 122.42 75.84V75.84Z" fill="#F2F2F2"/>
<path d="M8.58008 97.33H129.42" stroke="#63666A" stroke-width="1.5" stroke-miterlimit="10" stroke-linecap="round"/>
<path d="M71.81 114.8C77.1009 114.8 81.39 110.511 81.39 105.22C81.39 99.9291 77.1009 95.64 71.81 95.64C66.5191 95.64 62.23 99.9291 62.23 105.22C62.23 110.511 66.5191 114.8 71.81 114.8Z" fill="#A7A7A7" stroke="#63666A" stroke-width="1.5" stroke-linecap="round" stroke-linejoin="round"/>
<path d="M91.5702 65.57C90.2602 53.88 80.3802 49.74 71.8102 49.74C63.2402 49.74 53.3702 53.88 52.0602 65.57C50.9402 74.28 48.6502 80.97 43.9302 87.36C39.9302 92.94 38.8102 98.72 40.4202 102.71C40.6692 103.283 41.0822 103.769 41.6073 104.107C42.1323 104.445 42.7458 104.62 43.3702 104.61H100.25C100.883 104.63 101.507 104.46 102.042 104.121C102.577 103.782 102.998 103.291 103.25 102.71C104.86 98.71 103.68 92.94 99.7402 87.36C95.0002 81 92.6802 74.28 91.5702 65.57Z" fill="#D7D7D7"/>
<path d="M103.21 102.71C104.82 98.71 103.64 92.94 99.7001 87.36C95.0001 81 92.6801 74.28 91.5701 65.57C91.3182 62.3644 90.134 59.3026 88.1635 56.7617C86.193 54.2207 83.5221 52.3118 80.4801 51.27C78.579 50.5285 76.5005 50.3683 74.5083 50.8098C72.516 51.2513 70.6999 52.2747 69.2901 53.75C66.3755 56.9523 64.5972 61.0256 64.2301 65.34C62.9201 75.55 60.1401 82 54.6001 89.5C51.2401 94.25 49.3701 101.63 52.2901 104.61H100.29C100.909 104.614 101.516 104.437 102.036 104.099C102.555 103.761 102.963 103.278 103.21 102.71V102.71Z" fill="white"/>
<path d="M90.3002 60.47C86.0002 51.78 77.8702 49.74 71.8102 49.74C63.2402 49.74 53.3702 53.88 52.0602 65.57C50.9402 74.28 48.6502 80.97 43.9302 87.36C39.9302 92.94 38.8102 98.72 40.4202 102.71C40.6692 103.283 41.0822 103.769 41.6073 104.107C42.1323 104.445 42.7458 104.62 43.3702 104.61H100.25C100.883 104.63 101.507 104.46 102.042 104.121C102.577 103.782 102.998 103.291 103.25 102.71C104.86 98.71 103.68 92.94 99.7402 87.36C95.5766 81.5449 92.8894 74.8046 91.9102 67.72" stroke="#63666A" stroke-width="1.5" stroke-miterlimit="10" stroke-linecap="round"/>
<path d="M7.93555 147.326V148.399H2.54883V147.326H7.93555ZM2.75391 143.047V153H1.43457V143.047H2.75391ZM9.08398 143.047V153H7.77148V143.047H9.08398ZM12.6113 145.604V153H11.3398V145.604H12.6113ZM11.2441 143.642C11.2441 143.437 11.3057 143.263 11.4287 143.122C11.5563 142.981 11.7432 142.91 11.9893 142.91C12.2308 142.91 12.4154 142.981 12.543 143.122C12.6751 143.263 12.7412 143.437 12.7412 143.642C12.7412 143.838 12.6751 144.006 12.543 144.147C12.4154 144.284 12.2308 144.353 11.9893 144.353C11.7432 144.353 11.5563 144.284 11.4287 144.147C11.3057 144.006 11.2441 143.838 11.2441 143.642ZM17.7109 153.137C17.196 153.137 16.7288 153.05 16.3096 152.877C15.8949 152.699 15.5371 152.451 15.2363 152.132C14.9401 151.813 14.7122 151.435 14.5527 150.997C14.3932 150.56 14.3135 150.081 14.3135 149.562V149.274C14.3135 148.673 14.4023 148.137 14.5801 147.668C14.7578 147.194 14.9993 146.793 15.3047 146.465C15.61 146.137 15.9564 145.888 16.3438 145.72C16.7311 145.551 17.1322 145.467 17.5469 145.467C18.0755 145.467 18.5312 145.558 18.9141 145.74C19.3014 145.923 19.6182 146.178 19.8643 146.506C20.1104 146.829 20.2926 147.212 20.4111 147.654C20.5296 148.092 20.5889 148.57 20.5889 149.09V149.657H15.0654V148.625H19.3242V148.529C19.306 148.201 19.2376 147.882 19.1191 147.572C19.0052 147.262 18.8229 147.007 18.5723 146.807C18.3216 146.606 17.9798 146.506 17.5469 146.506C17.2598 146.506 16.9954 146.567 16.7539 146.69C16.5124 146.809 16.305 146.987 16.1318 147.224C15.9587 147.461 15.8242 147.75 15.7285 148.092C15.6328 148.434 15.585 148.828 15.585 149.274V149.562C15.585 149.912 15.6328 150.243 15.7285 150.553C15.8288 150.858 15.9723 151.127 16.1592 151.359C16.3506 151.592 16.5807 151.774 16.8496 151.906C17.123 152.038 17.4329 152.104 17.7793 152.104C18.2259 152.104 18.6042 152.013 18.9141 151.831C19.224 151.649 19.4951 151.405 19.7275 151.1L20.4932 151.708C20.3337 151.95 20.1309 152.18 19.8848 152.398C19.6387 152.617 19.3356 152.795 18.9756 152.932C18.6201 153.068 18.1986 153.137 17.7109 153.137ZM17.9229 142.5L19.6182 144.366V144.435H18.5654L17.54 143.279L16.5215 144.435H15.4824V144.359L17.1572 142.5H17.9229ZM16.7744 154.682C16.7744 154.477 16.8359 154.303 16.959 154.162C17.0866 154.021 17.2734 153.95 17.5195 153.95C17.7611 153.95 17.9456 154.021 18.0732 154.162C18.2054 154.303 18.2715 154.477 18.2715 154.682C18.2715 154.878 18.2054 155.044 18.0732 155.181C17.9456 155.322 17.7611 155.393 17.5195 155.393C17.2734 155.393 17.0866 155.322 16.959 155.181C16.8359 155.044 16.7744 154.878 16.7744 154.682ZM23.3301 147.183V153H22.0654V145.604H23.2617L23.3301 147.183ZM23.0293 149.021L22.5029 149.001C22.5075 148.495 22.5827 148.028 22.7285 147.6C22.8743 147.167 23.0794 146.791 23.3438 146.472C23.6081 146.153 23.9225 145.907 24.2871 145.733C24.6562 145.556 25.0641 145.467 25.5107 145.467C25.8753 145.467 26.2035 145.517 26.4951 145.617C26.7868 145.713 27.0352 145.868 27.2402 146.082C27.4499 146.296 27.6094 146.574 27.7188 146.916C27.8281 147.253 27.8828 147.666 27.8828 148.153V153H26.6113V148.14C26.6113 147.752 26.5544 147.442 26.4404 147.21C26.3265 146.973 26.1602 146.802 25.9414 146.697C25.7227 146.588 25.4538 146.533 25.1348 146.533C24.8203 146.533 24.5332 146.599 24.2734 146.731C24.0182 146.864 23.7972 147.046 23.6104 147.278C23.4281 147.511 23.2845 147.777 23.1797 148.078C23.0794 148.374 23.0293 148.689 23.0293 149.021ZM36.373 145.604V146.574H32.374V145.604H36.373ZM33.7275 143.806H34.9922V151.168C34.9922 151.419 35.0309 151.608 35.1084 151.735C35.1859 151.863 35.2861 151.947 35.4092 151.988C35.5322 152.029 35.6644 152.05 35.8057 152.05C35.9105 152.05 36.0199 152.041 36.1338 152.022C36.2523 152 36.3411 151.981 36.4004 151.968L36.4072 153C36.307 153.032 36.1748 153.062 36.0107 153.089C35.8512 153.121 35.6576 153.137 35.4297 153.137C35.1198 153.137 34.835 153.075 34.5752 152.952C34.3154 152.829 34.1081 152.624 33.9531 152.337C33.8027 152.045 33.7275 151.653 33.7275 151.161V143.806ZM42.2178 151.735V147.928C42.2178 147.636 42.1585 147.383 42.04 147.169C41.9261 146.95 41.7529 146.782 41.5205 146.663C41.2881 146.545 41.001 146.485 40.6592 146.485C40.3402 146.485 40.0599 146.54 39.8184 146.649C39.5814 146.759 39.3945 146.902 39.2578 147.08C39.1257 147.258 39.0596 147.449 39.0596 147.654H37.7949C37.7949 147.39 37.8633 147.128 38 146.868C38.1367 146.608 38.3327 146.374 38.5879 146.164C38.8477 145.95 39.1576 145.781 39.5176 145.658C39.8822 145.531 40.2878 145.467 40.7344 145.467C41.2721 145.467 41.7461 145.558 42.1562 145.74C42.571 145.923 42.8945 146.198 43.127 146.567C43.3639 146.932 43.4824 147.39 43.4824 147.941V151.387C43.4824 151.633 43.5029 151.895 43.5439 152.173C43.5895 152.451 43.6556 152.69 43.7422 152.891V153H42.4229C42.359 152.854 42.3089 152.66 42.2725 152.419C42.236 152.173 42.2178 151.945 42.2178 151.735ZM42.4365 148.516L42.4502 149.404H41.1719C40.8118 149.404 40.4906 149.434 40.208 149.493C39.9255 149.548 39.6885 149.632 39.4971 149.746C39.3057 149.86 39.1598 150.004 39.0596 150.177C38.9593 150.345 38.9092 150.544 38.9092 150.771C38.9092 151.004 38.9616 151.216 39.0664 151.407C39.1712 151.599 39.3285 151.751 39.5381 151.865C39.7523 151.975 40.0143 152.029 40.3242 152.029C40.7116 152.029 41.0534 151.947 41.3496 151.783C41.6458 151.619 41.8805 151.419 42.0537 151.182C42.2314 150.945 42.3271 150.715 42.3408 150.491L42.8809 151.1C42.849 151.291 42.7624 151.503 42.6211 151.735C42.4798 151.968 42.2907 152.191 42.0537 152.405C41.8213 152.615 41.5433 152.79 41.2197 152.932C40.9007 153.068 40.5407 153.137 40.1396 153.137C39.6383 153.137 39.1986 153.039 38.8203 152.843C38.4466 152.647 38.1549 152.385 37.9453 152.057C37.7402 151.724 37.6377 151.353 37.6377 150.942C37.6377 150.546 37.7152 150.197 37.8701 149.896C38.0251 149.591 38.2484 149.338 38.54 149.138C38.8317 148.933 39.1826 148.778 39.5928 148.673C40.0029 148.568 40.4609 148.516 40.9668 148.516H42.4365ZM39.5381 154.682C39.5381 154.477 39.5996 154.303 39.7227 154.162C39.8503 154.021 40.0371 153.95 40.2832 153.95C40.5247 153.95 40.7093 154.021 40.8369 154.162C40.9691 154.303 41.0352 154.477 41.0352 154.682C41.0352 154.878 40.9691 155.044 40.8369 155.181C40.7093 155.322 40.5247 155.393 40.2832 155.393C40.0371 155.393 39.8503 155.322 39.7227 155.181C39.5996 155.044 39.5381 154.878 39.5381 154.682ZM46.8457 145.604V153H45.5742V145.604H46.8457ZM45.4785 143.642C45.4785 143.437 45.54 143.263 45.6631 143.122C45.7907 142.981 45.9775 142.91 46.2236 142.91C46.4652 142.91 46.6497 142.981 46.7773 143.122C46.9095 143.263 46.9756 143.437 46.9756 143.642C46.9756 143.838 46.9095 144.006 46.7773 144.147C46.6497 144.284 46.4652 144.353 46.2236 144.353C45.9775 144.353 45.7907 144.284 45.6631 144.147C45.54 144.006 45.4785 143.838 45.4785 143.642ZM52.3418 142.5H53.6133V151.564L53.5039 153H52.3418V142.5ZM58.6104 149.24V149.384C58.6104 149.922 58.5465 150.421 58.4189 150.881C58.2913 151.337 58.1045 151.733 57.8584 152.07C57.6123 152.408 57.3115 152.67 56.9561 152.856C56.6006 153.043 56.1927 153.137 55.7324 153.137C55.263 153.137 54.8506 153.057 54.4951 152.897C54.1442 152.733 53.848 152.499 53.6064 152.193C53.3649 151.888 53.1712 151.519 53.0254 151.086C52.8841 150.653 52.7861 150.165 52.7314 149.623V148.994C52.7861 148.447 52.8841 147.957 53.0254 147.524C53.1712 147.091 53.3649 146.722 53.6064 146.417C53.848 146.107 54.1442 145.872 54.4951 145.713C54.846 145.549 55.2539 145.467 55.7188 145.467C56.1836 145.467 56.596 145.558 56.9561 145.74C57.3161 145.918 57.6169 146.173 57.8584 146.506C58.1045 146.839 58.2913 147.237 58.4189 147.702C58.5465 148.162 58.6104 148.675 58.6104 149.24ZM57.3389 149.384V149.24C57.3389 148.871 57.3047 148.525 57.2363 148.201C57.168 147.873 57.0586 147.586 56.9082 147.34C56.7578 147.089 56.5596 146.893 56.3135 146.752C56.0674 146.606 55.7643 146.533 55.4043 146.533C55.0853 146.533 54.8073 146.588 54.5703 146.697C54.3379 146.807 54.1396 146.955 53.9756 147.142C53.8115 147.324 53.6771 147.534 53.5723 147.771C53.472 148.003 53.3968 148.244 53.3467 148.495V150.143C53.4196 150.462 53.5381 150.769 53.7021 151.065C53.8708 151.357 54.0941 151.596 54.3721 151.783C54.6546 151.97 55.0033 152.063 55.418 152.063C55.7598 152.063 56.0514 151.995 56.293 151.858C56.5391 151.717 56.7373 151.523 56.8877 151.277C57.0426 151.031 57.1566 150.746 57.2295 150.423C57.3024 150.099 57.3389 149.753 57.3389 149.384ZM64.5713 151.735V147.928C64.5713 147.636 64.512 147.383 64.3936 147.169C64.2796 146.95 64.1064 146.782 63.874 146.663C63.6416 146.545 63.3545 146.485 63.0127 146.485C62.6937 146.485 62.4134 146.54 62.1719 146.649C61.9349 146.759 61.748 146.902 61.6113 147.08C61.4792 147.258 61.4131 147.449 61.4131 147.654H60.1484C60.1484 147.39 60.2168 147.128 60.3535 146.868C60.4902 146.608 60.6862 146.374 60.9414 146.164C61.2012 145.95 61.5111 145.781 61.8711 145.658C62.2357 145.531 62.6413 145.467 63.0879 145.467C63.6257 145.467 64.0996 145.558 64.5098 145.74C64.9245 145.923 65.248 146.198 65.4805 146.567C65.7174 146.932 65.8359 147.39 65.8359 147.941V151.387C65.8359 151.633 65.8564 151.895 65.8975 152.173C65.943 152.451 66.0091 152.69 66.0957 152.891V153H64.7764C64.7126 152.854 64.6624 152.66 64.626 152.419C64.5895 152.173 64.5713 151.945 64.5713 151.735ZM64.79 148.516L64.8037 149.404H63.5254C63.1654 149.404 62.8441 149.434 62.5615 149.493C62.279 149.548 62.042 149.632 61.8506 149.746C61.6592 149.86 61.5133 150.004 61.4131 150.177C61.3128 150.345 61.2627 150.544 61.2627 150.771C61.2627 151.004 61.3151 151.216 61.4199 151.407C61.5247 151.599 61.682 151.751 61.8916 151.865C62.1058 151.975 62.3678 152.029 62.6777 152.029C63.0651 152.029 63.4069 151.947 63.7031 151.783C63.9993 151.619 64.234 151.419 64.4072 151.182C64.585 150.945 64.6807 150.715 64.6943 150.491L65.2344 151.1C65.2025 151.291 65.1159 151.503 64.9746 151.735C64.8333 151.968 64.6442 152.191 64.4072 152.405C64.1748 152.615 63.8968 152.79 63.5732 152.932C63.2542 153.068 62.8942 153.137 62.4932 153.137C61.9919 153.137 61.5521 153.039 61.1738 152.843C60.8001 152.647 60.5085 152.385 60.2988 152.057C60.0938 151.724 59.9912 151.353 59.9912 150.942C59.9912 150.546 60.0687 150.197 60.2236 149.896C60.3786 149.591 60.6019 149.338 60.8936 149.138C61.1852 148.933 61.5361 148.778 61.9463 148.673C62.3564 148.568 62.8145 148.516 63.3203 148.516H64.79ZM61.8916 154.682C61.8916 154.477 61.9531 154.303 62.0762 154.162C62.2038 154.021 62.3906 153.95 62.6367 153.95C62.8783 153.95 63.0628 154.021 63.1904 154.162C63.3226 154.303 63.3887 154.477 63.3887 154.682C63.3887 154.878 63.3226 155.044 63.1904 155.181C63.0628 155.322 62.8783 155.393 62.6367 155.393C62.3906 155.393 62.2038 155.322 62.0762 155.181C61.9531 155.044 61.8916 154.878 61.8916 154.682ZM69.0898 147.183V153H67.8252V145.604H69.0215L69.0898 147.183ZM68.7891 149.021L68.2627 149.001C68.2673 148.495 68.3424 148.028 68.4883 147.6C68.6341 147.167 68.8392 146.791 69.1035 146.472C69.3678 146.153 69.6823 145.907 70.0469 145.733C70.416 145.556 70.8239 145.467 71.2705 145.467C71.6351 145.467 71.9632 145.517 72.2549 145.617C72.5465 145.713 72.7949 145.868 73 146.082C73.2096 146.296 73.3691 146.574 73.4785 146.916C73.5879 147.253 73.6426 147.666 73.6426 148.153V153H72.3711V148.14C72.3711 147.752 72.3141 147.442 72.2002 147.21C72.0863 146.973 71.9199 146.802 71.7012 146.697C71.4824 146.588 71.2135 146.533 70.8945 146.533C70.5801 146.533 70.293 146.599 70.0332 146.731C69.778 146.864 69.557 147.046 69.3701 147.278C69.1878 147.511 69.0443 147.777 68.9395 148.078C68.8392 148.374 68.7891 148.689 68.7891 149.021ZM80.3076 142.5V153H79.0361V142.5H80.3076ZM84.8262 145.604L81.5996 149.056L79.7949 150.929L79.6924 149.582L80.9844 148.037L83.2812 145.604H84.8262ZM83.6709 153L81.0322 149.473L81.6885 148.345L85.1611 153H83.6709ZM87.3965 142.5V153H86.1318V142.5H87.3965ZM87.0957 149.021L86.5693 149.001C86.5739 148.495 86.6491 148.028 86.7949 147.6C86.9408 147.167 87.1458 146.791 87.4102 146.472C87.6745 146.153 87.9889 145.907 88.3535 145.733C88.7227 145.556 89.1305 145.467 89.5771 145.467C89.9417 145.467 90.2699 145.517 90.5615 145.617C90.8532 145.713 91.1016 145.868 91.3066 146.082C91.5163 146.296 91.6758 146.574 91.7852 146.916C91.8945 147.253 91.9492 147.666 91.9492 148.153V153H90.6777V148.14C90.6777 147.752 90.6208 147.442 90.5068 147.21C90.3929 146.973 90.2266 146.802 90.0078 146.697C89.7891 146.588 89.5202 146.533 89.2012 146.533C88.8867 146.533 88.5996 146.599 88.3398 146.731C88.0846 146.864 87.8636 147.046 87.6768 147.278C87.4945 147.511 87.3509 147.777 87.2461 148.078C87.1458 148.374 87.0957 148.689 87.0957 149.021ZM93.5078 149.384V149.227C93.5078 148.693 93.5853 148.199 93.7402 147.743C93.8952 147.283 94.1185 146.884 94.4102 146.547C94.7018 146.205 95.055 145.941 95.4697 145.754C95.8844 145.562 96.3493 145.467 96.8643 145.467C97.3838 145.467 97.8509 145.562 98.2656 145.754C98.6849 145.941 99.0404 146.205 99.332 146.547C99.6283 146.884 99.8538 147.283 100.009 147.743C100.164 148.199 100.241 148.693 100.241 149.227V149.384C100.241 149.917 100.164 150.411 100.009 150.867C99.8538 151.323 99.6283 151.722 99.332 152.063C99.0404 152.401 98.6872 152.665 98.2725 152.856C97.8623 153.043 97.3975 153.137 96.8779 153.137C96.3584 153.137 95.8913 153.043 95.4766 152.856C95.0618 152.665 94.7064 152.401 94.4102 152.063C94.1185 151.722 93.8952 151.323 93.7402 150.867C93.5853 150.411 93.5078 149.917 93.5078 149.384ZM94.7725 149.227V149.384C94.7725 149.753 94.8158 150.102 94.9023 150.43C94.9889 150.753 95.1188 151.04 95.292 151.291C95.4697 151.542 95.6908 151.74 95.9551 151.886C96.2194 152.027 96.527 152.098 96.8779 152.098C97.2243 152.098 97.5273 152.027 97.7871 151.886C98.0514 151.74 98.2702 151.542 98.4434 151.291C98.6165 151.04 98.7464 150.753 98.833 150.43C98.9242 150.102 98.9697 149.753 98.9697 149.384V149.227C98.9697 148.862 98.9242 148.518 98.833 148.194C98.7464 147.866 98.6143 147.577 98.4365 147.326C98.2633 147.071 98.0446 146.87 97.7803 146.725C97.5205 146.579 97.2152 146.506 96.8643 146.506C96.5179 146.506 96.2126 146.579 95.9482 146.725C95.6885 146.87 95.4697 147.071 95.292 147.326C95.1188 147.577 94.9889 147.866 94.9023 148.194C94.8158 148.518 94.7725 148.862 94.7725 149.227ZM97.1924 142.5L98.8877 144.366V144.435H97.835L96.8096 143.279L95.791 144.435H94.752V144.359L96.4268 142.5H97.1924ZM103.092 147.183V153H101.827V145.604H103.023L103.092 147.183ZM102.791 149.021L102.265 149.001C102.269 148.495 102.344 148.028 102.49 147.6C102.636 147.167 102.841 146.791 103.105 146.472C103.37 146.153 103.684 145.907 104.049 145.733C104.418 145.556 104.826 145.467 105.272 145.467C105.637 145.467 105.965 145.517 106.257 145.617C106.549 145.713 106.797 145.868 107.002 146.082C107.212 146.296 107.371 146.574 107.48 146.916C107.59 147.253 107.645 147.666 107.645 148.153V153H106.373V148.14C106.373 147.752 106.316 147.442 106.202 147.21C106.088 146.973 105.922 146.802 105.703 146.697C105.484 146.588 105.215 146.533 104.896 146.533C104.582 146.533 104.295 146.599 104.035 146.731C103.78 146.864 103.559 147.046 103.372 147.278C103.19 147.511 103.046 147.777 102.941 148.078C102.841 148.374 102.791 148.689 102.791 149.021ZM114.357 145.604H115.506V152.843C115.506 153.494 115.374 154.05 115.109 154.511C114.845 154.971 114.476 155.32 114.002 155.557C113.533 155.798 112.99 155.919 112.375 155.919C112.12 155.919 111.819 155.878 111.473 155.796C111.131 155.718 110.794 155.584 110.461 155.393C110.133 155.206 109.857 154.953 109.634 154.634L110.297 153.882C110.607 154.256 110.93 154.515 111.268 154.661C111.609 154.807 111.947 154.88 112.279 154.88C112.68 154.88 113.027 154.805 113.318 154.654C113.61 154.504 113.836 154.281 113.995 153.984C114.159 153.693 114.241 153.333 114.241 152.904V147.23L114.357 145.604ZM109.265 149.384V149.24C109.265 148.675 109.331 148.162 109.463 147.702C109.6 147.237 109.793 146.839 110.044 146.506C110.299 146.173 110.607 145.918 110.967 145.74C111.327 145.558 111.732 145.467 112.184 145.467C112.648 145.467 113.054 145.549 113.4 145.713C113.751 145.872 114.048 146.107 114.289 146.417C114.535 146.722 114.729 147.091 114.87 147.524C115.011 147.957 115.109 148.447 115.164 148.994V149.623C115.114 150.165 115.016 150.653 114.87 151.086C114.729 151.519 114.535 151.888 114.289 152.193C114.048 152.499 113.751 152.733 113.4 152.897C113.049 153.057 112.639 153.137 112.17 153.137C111.728 153.137 111.327 153.043 110.967 152.856C110.611 152.67 110.306 152.408 110.051 152.07C109.796 151.733 109.6 151.337 109.463 150.881C109.331 150.421 109.265 149.922 109.265 149.384ZM110.529 149.24V149.384C110.529 149.753 110.566 150.099 110.639 150.423C110.716 150.746 110.832 151.031 110.987 151.277C111.147 151.523 111.35 151.717 111.596 151.858C111.842 151.995 112.136 152.063 112.478 152.063C112.897 152.063 113.243 151.975 113.517 151.797C113.79 151.619 114.007 151.384 114.166 151.093C114.33 150.801 114.458 150.484 114.549 150.143V148.495C114.499 148.244 114.421 148.003 114.316 147.771C114.216 147.534 114.084 147.324 113.92 147.142C113.76 146.955 113.562 146.807 113.325 146.697C113.088 146.588 112.81 146.533 112.491 146.533C112.145 146.533 111.846 146.606 111.596 146.752C111.35 146.893 111.147 147.089 110.987 147.34C110.832 147.586 110.716 147.873 110.639 148.201C110.566 148.525 110.529 148.871 110.529 149.24ZM123.859 152.098C124.16 152.098 124.438 152.036 124.693 151.913C124.949 151.79 125.158 151.621 125.322 151.407C125.486 151.188 125.58 150.94 125.603 150.662H126.806C126.783 151.1 126.635 151.507 126.361 151.886C126.092 152.259 125.739 152.562 125.302 152.795C124.864 153.023 124.383 153.137 123.859 153.137C123.303 153.137 122.818 153.039 122.403 152.843C121.993 152.647 121.651 152.378 121.378 152.036C121.109 151.694 120.906 151.302 120.77 150.86C120.637 150.414 120.571 149.942 120.571 149.445V149.158C120.571 148.661 120.637 148.192 120.77 147.75C120.906 147.303 121.109 146.909 121.378 146.567C121.651 146.226 121.993 145.957 122.403 145.761C122.818 145.565 123.303 145.467 123.859 145.467C124.438 145.467 124.944 145.585 125.377 145.822C125.81 146.055 126.149 146.374 126.396 146.779C126.646 147.18 126.783 147.636 126.806 148.146H125.603C125.58 147.841 125.493 147.565 125.343 147.319C125.197 147.073 124.996 146.877 124.741 146.731C124.491 146.581 124.197 146.506 123.859 146.506C123.472 146.506 123.146 146.583 122.882 146.738C122.622 146.889 122.415 147.094 122.26 147.354C122.109 147.609 122 147.894 121.932 148.208C121.868 148.518 121.836 148.835 121.836 149.158V149.445C121.836 149.769 121.868 150.088 121.932 150.402C121.995 150.717 122.103 151.002 122.253 151.257C122.408 151.512 122.615 151.717 122.875 151.872C123.139 152.022 123.467 152.098 123.859 152.098ZM127.893 149.384V149.227C127.893 148.693 127.97 148.199 128.125 147.743C128.28 147.283 128.503 146.884 128.795 146.547C129.087 146.205 129.44 145.941 129.854 145.754C130.269 145.562 130.734 145.467 131.249 145.467C131.769 145.467 132.236 145.562 132.65 145.754C133.07 145.941 133.425 146.205 133.717 146.547C134.013 146.884 134.239 147.283 134.394 147.743C134.549 148.199 134.626 148.693 134.626 149.227V149.384C134.626 149.917 134.549 150.411 134.394 150.867C134.239 151.323 134.013 151.722 133.717 152.063C133.425 152.401 133.072 152.665 132.657 152.856C132.247 153.043 131.782 153.137 131.263 153.137C130.743 153.137 130.276 153.043 129.861 152.856C129.447 152.665 129.091 152.401 128.795 152.063C128.503 151.722 128.28 151.323 128.125 150.867C127.97 150.411 127.893 149.917 127.893 149.384ZM129.157 149.227V149.384C129.157 149.753 129.201 150.102 129.287 150.43C129.374 150.753 129.504 151.04 129.677 151.291C129.854 151.542 130.076 151.74 130.34 151.886C130.604 152.027 130.912 152.098 131.263 152.098C131.609 152.098 131.912 152.027 132.172 151.886C132.436 151.74 132.655 151.542 132.828 151.291C133.001 151.04 133.131 150.753 133.218 150.43C133.309 150.102 133.354 149.753 133.354 149.384V149.227C133.354 148.862 133.309 148.518 133.218 148.194C133.131 147.866 132.999 147.577 132.821 147.326C132.648 147.071 132.429 146.87 132.165 146.725C131.905 146.579 131.6 146.506 131.249 146.506C130.903 146.506 130.597 146.579 130.333 146.725C130.073 146.87 129.854 147.071 129.677 147.326C129.504 147.577 129.374 147.866 129.287 148.194C129.201 148.518 129.157 148.862 129.157 149.227ZM130.497 144.51L131.823 142.5H133.348L131.516 144.51H130.497ZM15.168 165.604V166.574H11.1689V165.604H15.168ZM12.5225 163.806H13.7871V171.168C13.7871 171.419 13.8258 171.608 13.9033 171.735C13.9808 171.863 14.0811 171.947 14.2041 171.988C14.3271 172.029 14.4593 172.05 14.6006 172.05C14.7054 172.05 14.8148 172.041 14.9287 172.022C15.0472 172 15.1361 171.981 15.1953 171.968L15.2021 173C15.1019 173.032 14.9697 173.062 14.8057 173.089C14.6462 173.121 14.4525 173.137 14.2246 173.137C13.9147 173.137 13.6299 173.075 13.3701 172.952C13.1104 172.829 12.903 172.624 12.748 172.337C12.5977 172.045 12.5225 171.653 12.5225 171.161V163.806ZM17.916 162.5V173H16.6514V162.5H17.916ZM17.6152 169.021L17.0889 169.001C17.0934 168.495 17.1686 168.028 17.3145 167.6C17.4603 167.167 17.6654 166.791 17.9297 166.472C18.194 166.153 18.5085 165.907 18.873 165.733C19.2422 165.556 19.6501 165.467 20.0967 165.467C20.4613 165.467 20.7894 165.517 21.0811 165.617C21.3727 165.713 21.6211 165.868 21.8262 166.082C22.0358 166.296 22.1953 166.574 22.3047 166.916C22.4141 167.253 22.4688 167.666 22.4688 168.153V173H21.1973V168.14C21.1973 167.752 21.1403 167.442 21.0264 167.21C20.9124 166.973 20.7461 166.802 20.5273 166.697C20.3086 166.588 20.0397 166.533 19.7207 166.533C19.4062 166.533 19.1191 166.599 18.8594 166.731C18.6042 166.864 18.3831 167.046 18.1963 167.278C18.014 167.511 17.8704 167.777 17.7656 168.078C17.6654 168.374 17.6152 168.689 17.6152 169.021ZM24.0273 169.384V169.227C24.0273 168.693 24.1048 168.199 24.2598 167.743C24.4147 167.283 24.638 166.884 24.9297 166.547C25.2214 166.205 25.5745 165.941 25.9893 165.754C26.404 165.562 26.8688 165.467 27.3838 165.467C27.9033 165.467 28.3704 165.562 28.7852 165.754C29.2044 165.941 29.5599 166.205 29.8516 166.547C30.1478 166.884 30.3734 167.283 30.5283 167.743C30.6833 168.199 30.7607 168.693 30.7607 169.227V169.384C30.7607 169.917 30.6833 170.411 30.5283 170.867C30.3734 171.323 30.1478 171.722 29.8516 172.063C29.5599 172.401 29.2067 172.665 28.792 172.856C28.3818 173.043 27.917 173.137 27.3975 173.137C26.8779 173.137 26.4108 173.043 25.9961 172.856C25.5814 172.665 25.2259 172.401 24.9297 172.063C24.638 171.722 24.4147 171.323 24.2598 170.867C24.1048 170.411 24.0273 169.917 24.0273 169.384ZM25.292 169.227V169.384C25.292 169.753 25.3353 170.102 25.4219 170.43C25.5085 170.753 25.6383 171.04 25.8115 171.291C25.9893 171.542 26.2103 171.74 26.4746 171.886C26.7389 172.027 27.0465 172.098 27.3975 172.098C27.7438 172.098 28.0469 172.027 28.3066 171.886C28.571 171.74 28.7897 171.542 28.9629 171.291C29.1361 171.04 29.266 170.753 29.3525 170.43C29.4437 170.102 29.4893 169.753 29.4893 169.384V169.227C29.4893 168.862 29.4437 168.518 29.3525 168.194C29.266 167.866 29.1338 167.577 28.9561 167.326C28.7829 167.071 28.5641 166.87 28.2998 166.725C28.04 166.579 27.7347 166.506 27.3838 166.506C27.0374 166.506 26.7321 166.579 26.4678 166.725C26.208 166.87 25.9893 167.071 25.8115 167.326C25.6383 167.577 25.5085 167.866 25.4219 168.194C25.3353 168.518 25.292 168.862 25.292 169.227ZM27.7119 162.5L29.4072 164.366V164.435H28.3545L27.3291 163.279L26.3105 164.435H25.2715V164.359L26.9463 162.5H27.7119ZM33.6113 167.183V173H32.3467V165.604H33.543L33.6113 167.183ZM33.3105 169.021L32.7842 169.001C32.7887 168.495 32.8639 168.028 33.0098 167.6C33.1556 167.167 33.3607 166.791 33.625 166.472C33.8893 166.153 34.2038 165.907 34.5684 165.733C34.9375 165.556 35.3454 165.467 35.792 165.467C36.1566 165.467 36.4847 165.517 36.7764 165.617C37.068 165.713 37.3164 165.868 37.5215 166.082C37.7311 166.296 37.8906 166.574 38 166.916C38.1094 167.253 38.1641 167.666 38.1641 168.153V173H36.8926V168.14C36.8926 167.752 36.8356 167.442 36.7217 167.21C36.6077 166.973 36.4414 166.802 36.2227 166.697C36.0039 166.588 35.735 166.533 35.416 166.533C35.1016 166.533 34.8145 166.599 34.5547 166.731C34.2995 166.864 34.0785 167.046 33.8916 167.278C33.7093 167.511 33.5658 167.777 33.4609 168.078C33.3607 168.374 33.3105 168.689 33.3105 169.021ZM44.877 165.604H46.0254V172.843C46.0254 173.494 45.8932 174.05 45.6289 174.511C45.3646 174.971 44.9954 175.32 44.5215 175.557C44.0521 175.798 43.5098 175.919 42.8945 175.919C42.6393 175.919 42.3385 175.878 41.9922 175.796C41.6504 175.718 41.3132 175.584 40.9805 175.393C40.6523 175.206 40.3766 174.953 40.1533 174.634L40.8164 173.882C41.1263 174.256 41.4499 174.515 41.7871 174.661C42.1289 174.807 42.4661 174.88 42.7988 174.88C43.1999 174.88 43.5462 174.805 43.8379 174.654C44.1296 174.504 44.3551 174.281 44.5146 173.984C44.6787 173.693 44.7607 173.333 44.7607 172.904V167.23L44.877 165.604ZM39.7842 169.384V169.24C39.7842 168.675 39.8503 168.162 39.9824 167.702C40.1191 167.237 40.3128 166.839 40.5635 166.506C40.8187 166.173 41.1263 165.918 41.4863 165.74C41.8464 165.558 42.252 165.467 42.7031 165.467C43.168 165.467 43.5736 165.549 43.9199 165.713C44.2708 165.872 44.5671 166.107 44.8086 166.417C45.0547 166.722 45.2484 167.091 45.3896 167.524C45.5309 167.957 45.6289 168.447 45.6836 168.994V169.623C45.6335 170.165 45.5355 170.653 45.3896 171.086C45.2484 171.519 45.0547 171.888 44.8086 172.193C44.5671 172.499 44.2708 172.733 43.9199 172.897C43.569 173.057 43.1589 173.137 42.6895 173.137C42.2474 173.137 41.8464 173.043 41.4863 172.856C41.1309 172.67 40.8255 172.408 40.5703 172.07C40.3151 171.733 40.1191 171.337 39.9824 170.881C39.8503 170.421 39.7842 169.922 39.7842 169.384ZM41.0488 169.24V169.384C41.0488 169.753 41.0853 170.099 41.1582 170.423C41.2357 170.746 41.3519 171.031 41.5068 171.277C41.6663 171.523 41.8691 171.717 42.1152 171.858C42.3613 171.995 42.6553 172.063 42.9971 172.063C43.4163 172.063 43.7627 171.975 44.0361 171.797C44.3096 171.619 44.526 171.384 44.6855 171.093C44.8496 170.801 44.9772 170.484 45.0684 170.143V168.495C45.0182 168.244 44.9408 168.003 44.8359 167.771C44.7357 167.534 44.6035 167.324 44.4395 167.142C44.2799 166.955 44.0817 166.807 43.8447 166.697C43.6077 166.588 43.3298 166.533 43.0107 166.533C42.6644 166.533 42.3659 166.606 42.1152 166.752C41.8691 166.893 41.6663 167.089 41.5068 167.34C41.3519 167.586 41.2357 167.873 41.1582 168.201C41.0853 168.525 41.0488 168.871 41.0488 169.24ZM51.4121 162.5H52.6836V171.564L52.5742 173H51.4121V162.5ZM57.6807 169.24V169.384C57.6807 169.922 57.6169 170.421 57.4893 170.881C57.3617 171.337 57.1748 171.733 56.9287 172.07C56.6826 172.408 56.3818 172.67 56.0264 172.856C55.6709 173.043 55.263 173.137 54.8027 173.137C54.3333 173.137 53.9209 173.057 53.5654 172.897C53.2145 172.733 52.9183 172.499 52.6768 172.193C52.4352 171.888 52.2415 171.519 52.0957 171.086C51.9544 170.653 51.8564 170.165 51.8018 169.623V168.994C51.8564 168.447 51.9544 167.957 52.0957 167.524C52.2415 167.091 52.4352 166.722 52.6768 166.417C52.9183 166.107 53.2145 165.872 53.5654 165.713C53.9163 165.549 54.3242 165.467 54.7891 165.467C55.2539 165.467 55.6663 165.558 56.0264 165.74C56.3864 165.918 56.6872 166.173 56.9287 166.506C57.1748 166.839 57.3617 167.237 57.4893 167.702C57.6169 168.162 57.6807 168.675 57.6807 169.24ZM56.4092 169.384V169.24C56.4092 168.871 56.375 168.525 56.3066 168.201C56.2383 167.873 56.1289 167.586 55.9785 167.34C55.8281 167.089 55.6299 166.893 55.3838 166.752C55.1377 166.606 54.8346 166.533 54.4746 166.533C54.1556 166.533 53.8776 166.588 53.6406 166.697C53.4082 166.807 53.21 166.955 53.0459 167.142C52.8818 167.324 52.7474 167.534 52.6426 167.771C52.5423 168.003 52.4671 168.244 52.417 168.495V170.143C52.4899 170.462 52.6084 170.769 52.7725 171.065C52.9411 171.357 53.1644 171.596 53.4424 171.783C53.7249 171.97 54.0736 172.063 54.4883 172.063C54.8301 172.063 55.1217 171.995 55.3633 171.858C55.6094 171.717 55.8076 171.523 55.958 171.277C56.113 171.031 56.2269 170.746 56.2998 170.423C56.3727 170.099 56.4092 169.753 56.4092 169.384ZM63.6416 171.735V167.928C63.6416 167.636 63.5824 167.383 63.4639 167.169C63.3499 166.95 63.1768 166.782 62.9443 166.663C62.7119 166.545 62.4248 166.485 62.083 166.485C61.764 166.485 61.4837 166.54 61.2422 166.649C61.0052 166.759 60.8184 166.902 60.6816 167.08C60.5495 167.258 60.4834 167.449 60.4834 167.654H59.2188C59.2188 167.39 59.2871 167.128 59.4238 166.868C59.5605 166.608 59.7565 166.374 60.0117 166.164C60.2715 165.95 60.5814 165.781 60.9414 165.658C61.306 165.531 61.7116 165.467 62.1582 165.467C62.696 165.467 63.1699 165.558 63.5801 165.74C63.9948 165.923 64.3184 166.198 64.5508 166.567C64.7878 166.932 64.9062 167.39 64.9062 167.941V171.387C64.9062 171.633 64.9268 171.895 64.9678 172.173C65.0133 172.451 65.0794 172.69 65.166 172.891V173H63.8467C63.7829 172.854 63.7327 172.66 63.6963 172.419C63.6598 172.173 63.6416 171.945 63.6416 171.735ZM63.8604 168.516L63.874 169.404H62.5957C62.2357 169.404 61.9144 169.434 61.6318 169.493C61.3493 169.548 61.1123 169.632 60.9209 169.746C60.7295 169.86 60.5837 170.004 60.4834 170.177C60.3831 170.345 60.333 170.544 60.333 170.771C60.333 171.004 60.3854 171.216 60.4902 171.407C60.5951 171.599 60.7523 171.751 60.9619 171.865C61.1761 171.975 61.4382 172.029 61.748 172.029C62.1354 172.029 62.4772 171.947 62.7734 171.783C63.0697 171.619 63.3044 171.419 63.4775 171.182C63.6553 170.945 63.751 170.715 63.7646 170.491L64.3047 171.1C64.2728 171.291 64.1862 171.503 64.0449 171.735C63.9036 171.968 63.7145 172.191 63.4775 172.405C63.2451 172.615 62.9671 172.79 62.6436 172.932C62.3245 173.068 61.9645 173.137 61.5635 173.137C61.0622 173.137 60.6224 173.039 60.2441 172.843C59.8704 172.647 59.5788 172.385 59.3691 172.057C59.1641 171.724 59.0615 171.353 59.0615 170.942C59.0615 170.546 59.139 170.197 59.2939 169.896C59.4489 169.591 59.6722 169.338 59.9639 169.138C60.2555 168.933 60.6064 168.778 61.0166 168.673C61.4268 168.568 61.8848 168.516 62.3906 168.516H63.8604ZM61.5977 164.51L62.9238 162.5H64.4482L62.6162 164.51H61.5977ZM66.5605 169.384V169.227C66.5605 168.693 66.638 168.199 66.793 167.743C66.9479 167.283 67.1712 166.884 67.4629 166.547C67.7546 166.205 68.1077 165.941 68.5225 165.754C68.9372 165.562 69.402 165.467 69.917 165.467C70.4365 165.467 70.9036 165.562 71.3184 165.754C71.7376 165.941 72.0931 166.205 72.3848 166.547C72.681 166.884 72.9066 167.283 73.0615 167.743C73.2165 168.199 73.2939 168.693 73.2939 169.227V169.384C73.2939 169.917 73.2165 170.411 73.0615 170.867C72.9066 171.323 72.681 171.722 72.3848 172.063C72.0931 172.401 71.7399 172.665 71.3252 172.856C70.915 173.043 70.4502 173.137 69.9307 173.137C69.4111 173.137 68.944 173.043 68.5293 172.856C68.1146 172.665 67.7591 172.401 67.4629 172.063C67.1712 171.722 66.9479 171.323 66.793 170.867C66.638 170.411 66.5605 169.917 66.5605 169.384ZM67.8252 169.227V169.384C67.8252 169.753 67.8685 170.102 67.9551 170.43C68.0417 170.753 68.1715 171.04 68.3447 171.291C68.5225 171.542 68.7435 171.74 69.0078 171.886C69.2721 172.027 69.5798 172.098 69.9307 172.098C70.277 172.098 70.5801 172.027 70.8398 171.886C71.1042 171.74 71.3229 171.542 71.4961 171.291C71.6693 171.04 71.7992 170.753 71.8857 170.43C71.9769 170.102 72.0225 169.753 72.0225 169.384V169.227C72.0225 168.862 71.9769 168.518 71.8857 168.194C71.7992 167.866 71.667 167.577 71.4893 167.326C71.3161 167.071 71.0973 166.87 70.833 166.725C70.5732 166.579 70.2679 166.506 69.917 166.506C69.5706 166.506 69.2653 166.579 69.001 166.725C68.7412 166.87 68.5225 167.071 68.3447 167.326C68.1715 167.577 68.0417 167.866 67.9551 168.194C67.8685 168.518 67.8252 168.862 67.8252 169.227ZM79.6104 167.073V173H78.3389V165.604H79.542L79.6104 167.073ZM79.3506 169.021L78.7627 169.001C78.7673 168.495 78.8333 168.028 78.9609 167.6C79.0885 167.167 79.2777 166.791 79.5283 166.472C79.779 166.153 80.0911 165.907 80.4648 165.733C80.8385 165.556 81.2715 165.467 81.7637 165.467C82.11 165.467 82.429 165.517 82.7207 165.617C83.0124 165.713 83.2653 165.866 83.4795 166.075C83.6937 166.285 83.86 166.554 83.9785 166.882C84.097 167.21 84.1562 167.606 84.1562 168.071V173H82.8916V168.133C82.8916 167.745 82.8255 167.436 82.6934 167.203C82.5658 166.971 82.3835 166.802 82.1465 166.697C81.9095 166.588 81.6315 166.533 81.3125 166.533C80.9388 166.533 80.6266 166.599 80.376 166.731C80.1253 166.864 79.9248 167.046 79.7744 167.278C79.624 167.511 79.5146 167.777 79.4463 168.078C79.3825 168.374 79.3506 168.689 79.3506 169.021ZM84.1426 168.324L83.2949 168.584C83.2995 168.178 83.3656 167.789 83.4932 167.415C83.6253 167.041 83.8145 166.709 84.0605 166.417C84.3112 166.125 84.6188 165.895 84.9834 165.727C85.348 165.553 85.765 165.467 86.2344 165.467C86.6309 165.467 86.9818 165.519 87.2871 165.624C87.597 165.729 87.8568 165.891 88.0664 166.109C88.2806 166.324 88.4424 166.599 88.5518 166.937C88.6611 167.274 88.7158 167.675 88.7158 168.14V173H87.4443V168.126C87.4443 167.711 87.3783 167.39 87.2461 167.162C87.1185 166.93 86.9362 166.768 86.6992 166.677C86.4668 166.581 86.1888 166.533 85.8652 166.533C85.5872 166.533 85.3411 166.581 85.127 166.677C84.9128 166.772 84.7327 166.905 84.5869 167.073C84.4411 167.237 84.3294 167.426 84.252 167.641C84.179 167.855 84.1426 168.083 84.1426 168.324ZM96.9189 164.79H97.9375C97.9375 165.291 97.8691 165.724 97.7324 166.089C97.5957 166.449 97.3678 166.727 97.0488 166.923C96.7298 167.119 96.2969 167.217 95.75 167.217V166.424C96.0918 166.424 96.3447 166.355 96.5088 166.219C96.6774 166.082 96.7868 165.891 96.8369 165.645C96.8916 165.398 96.9189 165.114 96.9189 164.79ZM90.2949 169.384V169.227C90.2949 168.693 90.3724 168.199 90.5273 167.743C90.6823 167.283 90.9056 166.884 91.1973 166.547C91.4889 166.205 91.8421 165.941 92.2568 165.754C92.6715 165.562 93.1364 165.467 93.6514 165.467C94.1709 165.467 94.638 165.562 95.0527 165.754C95.472 165.941 95.8275 166.205 96.1191 166.547C96.4108 166.884 96.6341 167.283 96.7891 167.743C96.944 168.199 97.0215 168.693 97.0215 169.227V169.384C97.0215 169.917 96.944 170.411 96.7891 170.867C96.6341 171.323 96.4108 171.722 96.1191 172.063C95.8275 172.401 95.4743 172.665 95.0596 172.856C94.6494 173.043 94.1846 173.137 93.665 173.137C93.1455 173.137 92.6784 173.043 92.2637 172.856C91.849 172.665 91.4935 172.401 91.1973 172.063C90.9056 171.722 90.6823 171.323 90.5273 170.867C90.3724 170.411 90.2949 169.917 90.2949 169.384ZM91.5596 169.227V169.384C91.5596 169.753 91.6029 170.102 91.6895 170.43C91.776 170.753 91.9059 171.04 92.0791 171.291C92.2568 171.542 92.4779 171.74 92.7422 171.886C93.0065 172.027 93.3141 172.098 93.665 172.098C94.0114 172.098 94.3145 172.027 94.5742 171.886C94.8385 171.74 95.0573 171.542 95.2305 171.291C95.4036 171.04 95.5335 170.753 95.6201 170.43C95.7113 170.102 95.7568 169.753 95.7568 169.384V169.227C95.7568 168.862 95.7113 168.518 95.6201 168.194C95.5335 167.866 95.4014 167.577 95.2236 167.326C95.0505 167.071 94.8317 166.87 94.5674 166.725C94.3076 166.579 94.0023 166.506 93.6514 166.506C93.305 166.506 92.9997 166.579 92.7354 166.725C92.4756 166.87 92.2568 167.071 92.0791 167.326C91.9059 167.577 91.776 167.866 91.6895 168.194C91.6029 168.518 91.5596 168.862 91.5596 169.227ZM92.9473 164.51L94.2734 162.5H95.7979L93.9658 164.51H92.9473ZM100.016 165.604V173H98.7441V165.604H100.016ZM98.6484 163.642C98.6484 163.437 98.71 163.263 98.833 163.122C98.9606 162.981 99.1475 162.91 99.3936 162.91C99.6351 162.91 99.8197 162.981 99.9473 163.122C100.079 163.263 100.146 163.437 100.146 163.642C100.146 163.838 100.079 164.006 99.9473 164.147C99.8197 164.284 99.6351 164.353 99.3936 164.353C99.1475 164.353 98.9606 164.284 98.833 164.147C98.71 164.006 98.6484 163.838 98.6484 163.642ZM106.783 167.183V173H105.519V165.604H106.715L106.783 167.183ZM106.482 169.021L105.956 169.001C105.961 168.495 106.036 168.028 106.182 167.6C106.327 167.167 106.533 166.791 106.797 166.472C107.061 166.153 107.376 165.907 107.74 165.733C108.109 165.556 108.517 165.467 108.964 165.467C109.328 165.467 109.657 165.517 109.948 165.617C110.24 165.713 110.488 165.868 110.693 166.082C110.903 166.296 111.062 166.574 111.172 166.916C111.281 167.253 111.336 167.666 111.336 168.153V173H110.064V168.14C110.064 167.752 110.007 167.442 109.894 167.21C109.78 166.973 109.613 166.802 109.395 166.697C109.176 166.588 108.907 166.533 108.588 166.533C108.273 166.533 107.986 166.599 107.727 166.731C107.471 166.864 107.25 167.046 107.063 167.278C106.881 167.511 106.738 167.777 106.633 168.078C106.533 168.374 106.482 168.689 106.482 169.021ZM117.618 171.735V167.928C117.618 167.636 117.559 167.383 117.44 167.169C117.326 166.95 117.153 166.782 116.921 166.663C116.688 166.545 116.401 166.485 116.06 166.485C115.741 166.485 115.46 166.54 115.219 166.649C114.982 166.759 114.795 166.902 114.658 167.08C114.526 167.258 114.46 167.449 114.46 167.654H113.195C113.195 167.39 113.264 167.128 113.4 166.868C113.537 166.608 113.733 166.374 113.988 166.164C114.248 165.95 114.558 165.781 114.918 165.658C115.283 165.531 115.688 165.467 116.135 165.467C116.673 165.467 117.146 165.558 117.557 165.74C117.971 165.923 118.295 166.198 118.527 166.567C118.764 166.932 118.883 167.39 118.883 167.941V171.387C118.883 171.633 118.903 171.895 118.944 172.173C118.99 172.451 119.056 172.69 119.143 172.891V173H117.823C117.759 172.854 117.709 172.66 117.673 172.419C117.636 172.173 117.618 171.945 117.618 171.735ZM117.837 168.516L117.851 169.404H116.572C116.212 169.404 115.891 169.434 115.608 169.493C115.326 169.548 115.089 169.632 114.897 169.746C114.706 169.86 114.56 170.004 114.46 170.177C114.36 170.345 114.31 170.544 114.31 170.771C114.31 171.004 114.362 171.216 114.467 171.407C114.572 171.599 114.729 171.751 114.938 171.865C115.153 171.975 115.415 172.029 115.725 172.029C116.112 172.029 116.454 171.947 116.75 171.783C117.046 171.619 117.281 171.419 117.454 171.182C117.632 170.945 117.728 170.715 117.741 170.491L118.281 171.1C118.249 171.291 118.163 171.503 118.021 171.735C117.88 171.968 117.691 172.191 117.454 172.405C117.222 172.615 116.944 172.79 116.62 172.932C116.301 173.068 115.941 173.137 115.54 173.137C115.039 173.137 114.599 173.039 114.221 172.843C113.847 172.647 113.555 172.385 113.346 172.057C113.141 171.724 113.038 171.353 113.038 170.942C113.038 170.546 113.116 170.197 113.271 169.896C113.425 169.591 113.649 169.338 113.94 169.138C114.232 168.933 114.583 168.778 114.993 168.673C115.403 168.568 115.861 168.516 116.367 168.516H117.837ZM115.67 162.5L116.989 164.51H115.902L114.139 162.5H115.67ZM120.537 169.384V169.227C120.537 168.693 120.615 168.199 120.77 167.743C120.924 167.283 121.148 166.884 121.439 166.547C121.731 166.205 122.084 165.941 122.499 165.754C122.914 165.562 123.379 165.467 123.894 165.467C124.413 165.467 124.88 165.562 125.295 165.754C125.714 165.941 126.07 166.205 126.361 166.547C126.658 166.884 126.883 167.283 127.038 167.743C127.193 168.199 127.271 168.693 127.271 169.227V169.384C127.271 169.917 127.193 170.411 127.038 170.867C126.883 171.323 126.658 171.722 126.361 172.063C126.07 172.401 125.716 172.665 125.302 172.856C124.892 173.043 124.427 173.137 123.907 173.137C123.388 173.137 122.921 173.043 122.506 172.856C122.091 172.665 121.736 172.401 121.439 172.063C121.148 171.722 120.924 171.323 120.77 170.867C120.615 170.411 120.537 169.917 120.537 169.384ZM121.802 169.227V169.384C121.802 169.753 121.845 170.102 121.932 170.43C122.018 170.753 122.148 171.04 122.321 171.291C122.499 171.542 122.72 171.74 122.984 171.886C123.249 172.027 123.556 172.098 123.907 172.098C124.254 172.098 124.557 172.027 124.816 171.886C125.081 171.74 125.299 171.542 125.473 171.291C125.646 171.04 125.776 170.753 125.862 170.43C125.953 170.102 125.999 169.753 125.999 169.384V169.227C125.999 168.862 125.953 168.518 125.862 168.194C125.776 167.866 125.644 167.577 125.466 167.326C125.293 167.071 125.074 166.87 124.81 166.725C124.55 166.579 124.244 166.506 123.894 166.506C123.547 166.506 123.242 166.579 122.978 166.725C122.718 166.87 122.499 167.071 122.321 167.326C122.148 167.577 122.018 167.866 121.932 168.194C121.845 168.518 121.802 168.862 121.802 169.227Z" fill="#999999"/>
</svg>